<mxfile host="drawio-plugin" modified="2025-03-29T16:59:44.965Z" agent="Mozilla/5.0 (Macintosh; Intel Mac OS X 10_15_7) AppleWebKit/537.36 (KHTML, like Gecko) Chrome/122.0.0.0 Safari/537.36" etag="PPTa-tkkT-n1lLUE5GAz" version="22.1.22" type="embed">
  <diagram id="-Z9XSBhgMuNzceE0SQdS" name="Page-1">
    <mxGraphModel dx="2010" dy="799" grid="1" gridSize="10" guides="1" tooltips="1" connect="1" arrows="1" fold="1" page="1" pageScale="1" pageWidth="850" pageHeight="1100" background="#000000" math="0" shadow="0">
      <root>
        <mxCell id="0" />
        <mxCell id="1" parent="0" />
        <mxCell id="2" value="" style="strokeWidth=1;shadow=0;dashed=0;align=center;html=1;shape=mxgraph.mockup.containers.browserWindow;rSize=0;strokeColor2=#008cff;strokeColor3=#c4c4c4;mainText=,;recursiveResize=0;" parent="1" vertex="1">
          <mxGeometry x="-470" y="20" width="1080" height="840" as="geometry" />
        </mxCell>
        <mxCell id="3" value="My Profile" style="strokeWidth=1;shadow=0;dashed=0;align=center;html=1;shape=mxgraph.mockup.containers.anchor;fontSize=17;fontColor=#666666;align=left;whiteSpace=wrap;" parent="2" vertex="1">
          <mxGeometry x="60" y="12" width="240" height="26" as="geometry" />
        </mxCell>
        <mxCell id="4" value="https://paintbar.app/profile" style="strokeWidth=1;shadow=0;dashed=0;align=center;html=1;shape=mxgraph.mockup.containers.anchor;rSize=0;fontSize=17;fontColor=#666666;align=left;" parent="2" vertex="1">
          <mxGeometry x="130" y="60" width="250" height="26" as="geometry" />
        </mxCell>
        <mxCell id="6" value="" style="verticalLabelPosition=bottom;shadow=0;dashed=0;align=center;html=1;verticalAlign=top;strokeWidth=1;shape=mxgraph.mockup.containers.userMale;strokeColor=#666666;strokeColor2=#008cff;" vertex="1" parent="2">
          <mxGeometry x="945" y="190" width="100" height="100" as="geometry" />
        </mxCell>
        <mxCell id="15" value="" style="shape=mxgraph.mockup.containers.marginRect;rectMarginTop=10;strokeColor=#666666;strokeWidth=1;dashed=0;rounded=1;arcSize=5;recursiveResize=0;html=1;whiteSpace=wrap;" vertex="1" parent="2">
          <mxGeometry x="20" y="180" width="890" height="200" as="geometry" />
        </mxCell>
        <mxCell id="16" value="My Projects" style="shape=rect;strokeColor=none;fillColor=#008cff;strokeWidth=1;dashed=0;rounded=1;arcSize=20;fontColor=#ffffff;fontSize=17;spacing=2;spacingTop=-2;align=left;autosize=1;spacingLeft=4;resizeWidth=0;resizeHeight=0;perimeter=none;html=1;whiteSpace=wrap;" vertex="1" parent="15">
          <mxGeometry x="5" width="110" height="30" as="geometry" />
        </mxCell>
        <mxCell id="60" value="Recent Project 1" style="whiteSpace=wrap;html=1;aspect=fixed;" vertex="1" parent="15">
          <mxGeometry x="25" y="40" width="140" height="140" as="geometry" />
        </mxCell>
        <mxCell id="61" value="Recent Project 2" style="whiteSpace=wrap;html=1;aspect=fixed;" vertex="1" parent="15">
          <mxGeometry x="190" y="40" width="140" height="140" as="geometry" />
        </mxCell>
        <mxCell id="62" value="Recent Project 3" style="whiteSpace=wrap;html=1;aspect=fixed;" vertex="1" parent="15">
          <mxGeometry x="350" y="40" width="140" height="140" as="geometry" />
        </mxCell>
        <mxCell id="63" value="Recent Project 4" style="whiteSpace=wrap;html=1;aspect=fixed;" vertex="1" parent="15">
          <mxGeometry x="510" y="40" width="140" height="140" as="geometry" />
        </mxCell>
        <mxCell id="64" value="Recent Project 5" style="whiteSpace=wrap;html=1;aspect=fixed;" vertex="1" parent="15">
          <mxGeometry x="670" y="40" width="140" height="140" as="geometry" />
        </mxCell>
        <mxCell id="77" value="View All" style="shape=rectangle;strokeColor=none;fillColor=none;linkText=;fontSize=17;fontColor=#0000ff;fontStyle=4;html=1;align=center;" vertex="1" parent="15">
          <mxGeometry x="825" y="95" width="50" height="30" as="geometry" />
        </mxCell>
        <mxCell id="17" value="" style="shape=mxgraph.mockup.containers.marginRect;rectMarginTop=10;strokeColor=#666666;strokeWidth=1;dashed=0;rounded=1;arcSize=5;recursiveResize=0;html=1;whiteSpace=wrap;" vertex="1" parent="2">
          <mxGeometry x="20" y="400" width="890" height="200" as="geometry" />
        </mxCell>
        <mxCell id="18" value="Public Gallery" style="shape=rect;strokeColor=none;fillColor=#008cff;strokeWidth=1;dashed=0;rounded=1;arcSize=20;fontColor=#ffffff;fontSize=17;spacing=2;spacingTop=-2;align=left;autosize=1;spacingLeft=4;resizeWidth=0;resizeHeight=0;perimeter=none;html=1;whiteSpace=wrap;" vertex="1" parent="17">
          <mxGeometry x="5" width="125" height="30" as="geometry" />
        </mxCell>
        <mxCell id="65" value="Top Public Publish 1" style="whiteSpace=wrap;html=1;aspect=fixed;" vertex="1" parent="17">
          <mxGeometry x="25" y="40" width="140" height="140" as="geometry" />
        </mxCell>
        <mxCell id="66" value="Top Public Publish 2" style="whiteSpace=wrap;html=1;aspect=fixed;" vertex="1" parent="17">
          <mxGeometry x="190" y="40" width="140" height="140" as="geometry" />
        </mxCell>
        <mxCell id="67" value="Top Public Publish 3" style="whiteSpace=wrap;html=1;aspect=fixed;" vertex="1" parent="17">
          <mxGeometry x="350" y="40" width="140" height="140" as="geometry" />
        </mxCell>
        <mxCell id="68" value="Top Public Publish 4" style="whiteSpace=wrap;html=1;aspect=fixed;" vertex="1" parent="17">
          <mxGeometry x="510" y="40" width="140" height="140" as="geometry" />
        </mxCell>
        <mxCell id="69" value="Top Public Publish 5" style="whiteSpace=wrap;html=1;aspect=fixed;" vertex="1" parent="17">
          <mxGeometry x="670" y="40" width="140" height="140" as="geometry" />
        </mxCell>
        <mxCell id="78" value="View All" style="shape=rectangle;strokeColor=none;fillColor=none;linkText=;fontSize=17;fontColor=#0000ff;fontStyle=4;html=1;align=center;" vertex="1" parent="17">
          <mxGeometry x="830" y="100" width="50" height="30" as="geometry" />
        </mxCell>
        <mxCell id="19" value="" style="shape=mxgraph.mockup.containers.marginRect;rectMarginTop=10;strokeColor=#666666;strokeWidth=1;dashed=0;rounded=1;arcSize=5;recursiveResize=0;html=1;whiteSpace=wrap;" vertex="1" parent="2">
          <mxGeometry x="20" y="630" width="890" height="200" as="geometry" />
        </mxCell>
        <mxCell id="20" value="Paintbar NFT Browser" style="shape=rect;strokeColor=none;fillColor=#008cff;strokeWidth=1;dashed=0;rounded=1;arcSize=20;fontColor=#ffffff;fontSize=17;spacing=2;spacingTop=-2;align=left;autosize=1;spacingLeft=4;resizeWidth=0;resizeHeight=0;perimeter=none;html=1;whiteSpace=wrap;" vertex="1" parent="19">
          <mxGeometry x="5" width="195" height="30" as="geometry" />
        </mxCell>
        <mxCell id="70" value="Top purchased Paintbar NFT 1" style="whiteSpace=wrap;html=1;aspect=fixed;" vertex="1" parent="19">
          <mxGeometry x="25" y="40" width="140" height="140" as="geometry" />
        </mxCell>
        <mxCell id="71" value="Top Purchased Paintbar NFT 2" style="whiteSpace=wrap;html=1;aspect=fixed;" vertex="1" parent="19">
          <mxGeometry x="190" y="40" width="140" height="140" as="geometry" />
        </mxCell>
        <mxCell id="72" value="Top Purchased Paintbar NFT 3" style="whiteSpace=wrap;html=1;aspect=fixed;" vertex="1" parent="19">
          <mxGeometry x="350" y="40" width="140" height="140" as="geometry" />
        </mxCell>
        <mxCell id="73" value="Top Purchased Paintbar NFT 4" style="whiteSpace=wrap;html=1;aspect=fixed;" vertex="1" parent="19">
          <mxGeometry x="510" y="40" width="140" height="140" as="geometry" />
        </mxCell>
        <mxCell id="74" value="Top Purchased Paintbar NFT 5" style="whiteSpace=wrap;html=1;aspect=fixed;" vertex="1" parent="19">
          <mxGeometry x="670" y="40" width="140" height="140" as="geometry" />
        </mxCell>
        <mxCell id="79" value="View All" style="shape=rectangle;strokeColor=none;fillColor=none;linkText=;fontSize=17;fontColor=#0000ff;fontStyle=4;html=1;align=center;" vertex="1" parent="19">
          <mxGeometry x="830" y="95" width="50" height="30" as="geometry" />
        </mxCell>
        <mxCell id="47" value="" style="strokeWidth=1;shadow=0;dashed=0;align=center;html=1;shape=mxgraph.mockup.rrect;rSize=10;fillColor=#ffffff;strokeColor=#666666;" vertex="1" parent="2">
          <mxGeometry y="120" width="1080" height="50" as="geometry" />
        </mxCell>
        <mxCell id="48" value="My Projects" style="strokeColor=inherit;fillColor=inherit;gradientColor=inherit;strokeWidth=1;shadow=0;dashed=0;align=center;html=1;shape=mxgraph.mockup.rrect;rSize=0;fontSize=17;fontColor=#666666;fontStyle=1;resizeHeight=1;whiteSpace=wrap;" vertex="1" parent="47">
          <mxGeometry width="125" height="50" relative="1" as="geometry">
            <mxPoint x="125" as="offset" />
          </mxGeometry>
        </mxCell>
        <mxCell id="49" value="Public Gallery" style="strokeColor=inherit;fillColor=inherit;gradientColor=inherit;strokeWidth=1;shadow=0;dashed=0;align=center;html=1;shape=mxgraph.mockup.rrect;rSize=0;fontSize=17;fontColor=#666666;fontStyle=1;resizeHeight=1;whiteSpace=wrap;" vertex="1" parent="47">
          <mxGeometry width="140" height="50" relative="1" as="geometry">
            <mxPoint x="250" as="offset" />
          </mxGeometry>
        </mxCell>
        <mxCell id="50" value="Edit Profile" style="strokeColor=inherit;fillColor=inherit;gradientColor=inherit;strokeWidth=1;shadow=0;dashed=0;align=center;html=1;shape=mxgraph.mockup.rightButton;rSize=10;fontSize=17;fontColor=#666666;fontStyle=1;resizeHeight=1;whiteSpace=wrap;" vertex="1" parent="47">
          <mxGeometry x="1" width="125" height="50" relative="1" as="geometry">
            <mxPoint x="-400" as="offset" />
          </mxGeometry>
        </mxCell>
        <mxCell id="51" value="&amp;lt;Logo&amp;gt;" style="strokeWidth=1;shadow=0;dashed=0;align=center;html=1;shape=mxgraph.mockup.leftButton;rSize=10;fontSize=17;fontColor=#ffffff;fontStyle=1;fillColor=#008cff;strokeColor=#008cff;resizeHeight=1;whiteSpace=wrap;" vertex="1" parent="47">
          <mxGeometry width="125" height="50" relative="1" as="geometry" />
        </mxCell>
        <mxCell id="54" value="Paintbar Browser" style="strokeColor=inherit;fillColor=inherit;gradientColor=inherit;strokeWidth=1;shadow=0;dashed=0;align=center;html=1;shape=mxgraph.mockup.rrect;rSize=0;fontSize=17;fontColor=#666666;fontStyle=1;resizeHeight=1;whiteSpace=wrap;" vertex="1" parent="47">
          <mxGeometry width="170" height="50" relative="1" as="geometry">
            <mxPoint x="390" as="offset" />
          </mxGeometry>
        </mxCell>
        <mxCell id="55" value="About" style="strokeColor=inherit;fillColor=inherit;gradientColor=inherit;strokeWidth=1;shadow=0;dashed=0;align=center;html=1;shape=mxgraph.mockup.rrect;rSize=0;fontSize=17;fontColor=#666666;fontStyle=1;resizeHeight=1;whiteSpace=wrap;" vertex="1" parent="47">
          <mxGeometry width="125" height="50" relative="1" as="geometry">
            <mxPoint x="560" as="offset" />
          </mxGeometry>
        </mxCell>
        <mxCell id="58" value="- github&lt;br&gt;- linkedin&lt;br&gt;- x&lt;br&gt;- bluesky&lt;br&gt;- personal website&lt;br&gt;- other links" style="strokeWidth=1;shadow=0;dashed=0;align=center;html=1;shape=mxgraph.mockup.text.bulletedList;textColor=#666666;mainText=,,,,;textSize=17;bulletStyle=none;strokeColor=none;fillColor=none;align=left;verticalAlign=top;fontSize=17;fontColor=#666666;" vertex="1" parent="2">
          <mxGeometry x="920" y="420" width="150" height="135" as="geometry" />
        </mxCell>
        <mxCell id="59" value="&amp;lt;User Name&amp;gt;&lt;br&gt;&amp;lt;Display Name&amp;gt;&lt;br&gt;&amp;lt;hbar address&amp;gt;" style="strokeWidth=1;shadow=0;dashed=0;align=center;html=1;shape=mxgraph.mockup.text.bulletedList;textColor=#666666;mainText=,,,,;textSize=17;bulletStyle=none;strokeColor=none;fillColor=none;align=left;verticalAlign=top;fontSize=17;fontColor=#666666;" vertex="1" parent="2">
          <mxGeometry x="920" y="300" width="150" height="50" as="geometry" />
        </mxCell>
      </root>
    </mxGraphModel>
  </diagram>
</mxfile>
